# xmcd
#
# Track frame offsets:
# 150
# 30668
# 53073
# 93742
# 127588
# 158572
# 172234
# 200177
# 231567
# 263921
# 302772
#
# Disc length: 4465 seconds
#
#
# Revision: 0
# Processed by: cddbd v1.5.2PL0 Copyright (c) Steve Scherf et al.
# Submitted via: FreeRIP 2.96 
#
DISCID=97116f0b
DTITLE=Hearn, Lian - Das Schwert in der Stille
DYEAR=2004
DGENRE=Hörbuch
TTITLE0=15 Das Schwert in der Stille
TTITLE1=16 Das Schwert in der Stille
TTITLE2=17 Das Schwert in der Stille
TTITLE3=18 Das Schwert in der Stille
TTITLE4=19 Das Schwert in der Stille
TTITLE5=20 Das Schwert in der Stille
TTITLE6=21 Das Schwert in der Stille
TTITLE7=22 Das Schwert in der Stille
TTITLE8=23 Das Schwert in der Stille
TTITLE9=24 Das Schwert in der Stille
TTITLE10=25 Das Schwert in der Stille
EXTD=Der Clan der Otori 1 - korrigiert\ngelesen von Marlen Diekhoff und August Diehl
EXTT0=
EXTT1=
EXTT2=
EXTT3=
EXTT4=
EXTT5=
EXTT6=
EXTT7=
EXTT8=
EXTT9=
EXTT10=
PLAYORDER=
